HIERARCHY
ROOT Hips
{
	OFFSET 0.000000 0.000000 0.000000 
	CHANNELS 6 Xposition Yposition Zposition Yrotation Zrotation Xrotation 
	JOINT Lumbar
	{
		OFFSET 0.000000 0.000000 0.000000 
		CHANNELS 3 Zrotation Xrotation Yrotation
		JOINT Neck
		{
			OFFSET 0.000000 0.445665 0.000000 
			CHANNELS 3 Zrotation Xrotation Yrotation
			End Site
			{
				OFFSET 0.000000 0.227535 0.000000 
			}
		}
		JOINT RightShoulder
		{
			OFFSET 0.019635 0.377685 0.194865 
			CHANNELS 3 Zrotation Xrotation Yrotation
			JOINT RightElbow
			{
				OFFSET 0.000000 -0.243375 0.000000 
				CHANNELS 2 Zrotation Yrotation
				JOINT RightWrist
				{
					OFFSET 0.000000 -0.264825 0.000000 
					CHANNELS 2 Zrotation Xrotation
					End Site
					{
						OFFSET 0.006600 -0.176220 0.000990 
					}
				}
			}
		}
		JOINT LeftShoulder
		{
			OFFSET 0.019635 0.377685 -0.194865 
			CHANNELS 3 Zrotation Xrotation Yrotation
			JOINT LeftElbow
			{
				OFFSET 0.000000 -0.243375 0.000000 
				CHANNELS 2 Zrotation Yrotation
				JOINT LeftWrist
				{
					OFFSET 0.000000 -0.264825 0.000000 
					CHANNELS 2 Zrotation Xrotation
					End Site
					{
						OFFSET 0.006600 -0.176220 -0.000990 
					}
				}
			}
		}
	}
	JOINT RightHip
	{
		OFFSET 0.052140 -0.069960 0.075570 
		CHANNELS 3 Zrotation Xrotation Yrotation
		JOINT RightKnee
		{
			OFFSET 0.000000 -0.402270 0.000000 
			CHANNELS 1 Zrotation
			JOINT RightAnkle
			{
				OFFSET 0.000000 -0.404085 0.000000 
				CHANNELS 3 Zrotation Xrotation Yrotation
				End Site
				{
					OFFSET 0.204105 -0.089430 0.008415 
				}
			}
		}
	}
	JOINT LeftHip
	{
		OFFSET 0.052140 -0.069960 -0.075570 
		CHANNELS 3 Zrotation Xrotation Yrotation
		JOINT LeftKnee
		{
			OFFSET 0.000000 -0.402270 0.000000 
			CHANNELS 1 Zrotation
			JOINT LeftAnkle
			{
				OFFSET 0.000000 -0.404085 0.000000 
				CHANNELS 3 Zrotation Xrotation Yrotation
				End Site
				{
					OFFSET 0.204105 -0.089430 -0.008415 
				}
			}
		}
	}
}
MOTION
Frames: 25
Frame Time: 0.02
0.78828 0.11791 -0.50414 13.89458 -77.00031 -4.66611 -13.65559 7.51258 2.45806 17.183 -18.5556 -2.11989 111.74179 5.42681 43.6037 5.79291 79.79978 -6.1759 4.26661 103.84665 -1.07699 -41.67032 12.58471 -81.42807 -1.70487 3.94515 109.92021 -17.19779 13.49503 -47.6534 -6.52889 -2.9408 -3.64907 119.57638 7.04022 21.75287 -56.37855 -6.86159 0.54166 2.52637
0.78756 0.11856 -0.50327 13.50392 -76.66369 -5.07217 -13.09633 7.48703 2.42255 17.16329 -18.3468 -2.11989 110.42055 5.59626 42.65135 5.80445 79.95064 -6.19501 3.78793 102.29021 -1.05427 -40.40312 13.11127 -82.02082 -1.66272 4.06615 109.36311 -17.24053 12.9702 -47.27462 -6.51552 -2.88334 -3.61996 119.241 6.8624 21.118 -56.19016 -6.83982 0.59206 2.54913
0.78639 0.11914 -0.50214 12.87924 -76.31053 -5.70519 -12.36559 7.42887 2.37986 17.16903 -18.12254 -2.11989 108.86914 5.8243 41.08375 5.83043 79.5047 -6.33141 3.18204 100.49367 -1.00983 -38.8939 13.7291 -82.32566 -1.5588 4.17681 108.82572 -17.4124 12.01525 -46.85739 -6.48687 -2.77836 -3.56711 118.91586 6.74063 20.45103 -56.01234 -6.82216 0.64399 2.57274
0.78546 0.11976 -0.50114 12.36038 -75.95231 -6.22997 -11.70968 7.38167 2.33683 17.1647 -17.91282 -2.11989 107.40572 6.02762 39.84126 5.86454 79.3549 -6.41169 2.64958 98.78913 -0.96585 -37.51843 14.31345 -82.76181 -1.48514 4.29227 108.26217 -17.51486 11.2664 -46.45137 -6.46623 -2.69636 -3.52584 118.5692 6.58424 19.77289 -55.82095 -6.80137 0.69792 2.59719
0.78437 0.12034 -0.50009 11.84525 -75.645 -6.77599 -11.06736 7.35159 2.30724 17.15375 -17.67279 -2.1199 106.00811 6.22369 38.42851 5.83594 79.11361 -6.50343 2.05248 97.151 -0.96118 -36.03413 14.86671 -83.21913 -1.40423 4.40935 107.76573 -17.66056 10.47661 -46.06932 -6.44123 -2.60913 -3.48153 118.2915 6.45979 19.19265 -55.66398 -6.78522 0.7414 2.61688
0.7835 0.121 -0.49909 11.26728 -75.22804 -7.33079 -10.35472 7.27766 2.24953 17.16233 -17.48982 -2.1199 104.41983 6.44687 37.21465 5.94226 78.91807 -6.59729 1.55884 95.31962 -0.87058 -34.72417 15.50502 -83.55515 -1.32362 4.5191 107.13561 -17.74631 9.67221 -45.62891 -6.42182 -2.52165 -3.43801 117.87242 6.28692 18.40939 -55.43873 -6.76092 0.80624 2.64634
0.78335 0.12193 -0.49831 10.56033 -74.51808 -7.86618 -9.5038 7.09245 2.10486 17.22326 -17.49094 -2.1199 102.369 6.74977 36.71817 6.41046 78.96611 -6.69406 1.38837 93.0152 -0.53587 -33.9322 16.36057 -83.6254 -1.2504 4.62006 106.13947 -17.65272 8.88279 -45.03998 -6.4192 -2.44004 -3.39995 117.07243 5.93875 17.01925 -55.02325 -6.70957 0.93474 2.70481
0.78343 0.12296 -0.49759 9.80062 -73.69732 -8.40027 -8.58585 6.86389 1.93435 17.30182 -17.54579 -2.1199 100.13377 7.0741 36.43863 7.01548 79.08268 -6.7849 1.32544 90.52531 -0.11746 -33.32944 17.29756 -83.58037 -1.18033 4.7122 105.00708 -17.49239 8.09948 -44.39342 -6.42308 -2.36039 -3.3638 116.12754 5.54548 15.43662 -54.53887 -6.65053 1.08368 2.77263
0.78341 0.12395 -0.49683 9.07252 -72.92434 -8.92777 -7.68918 6.65373 1.783 17.36985 -17.56126 -2.1199 97.97841 7.37666 36.04306 7.56228 79.18591 -6.86149 1.2086 88.11971 0.25461 -32.65545 18.19358 -83.5857 -1.11466 4.80227 103.93334 -17.35037 7.34774 -43.77156 -6.42555 -2.28327 -3.32851 115.24225 5.19201 13.97868 -54.08587 -6.59739 1.21985 2.83465
0.78338 0.12491 -0.49611 8.30243 -72.16298 -9.49473 -6.82404 6.4475 1.59995 17.45096 -17.63959 -2.1199 95.83056 7.73361 35.69284 8.09201 79.19828 -7.01211 1.10729 85.70477 0.66195 -31.90943 19.10867 -83.59019 -1.02427 4.91747 102.87585 -17.26 6.44516 -43.15469 -6.42117 -2.19096 -3.28557 114.38577 4.75982 12.36322 -53.63299 -6.53439 1.3707 2.9032
0.78342 0.12595 -0.49534 7.61235 -71.34957 -9.97465 -5.88109 6.22376 1.47703 17.50669 -17.59966 -2.1199 93.62751 7.97964 35.31661 8.69065 79.41782 -7.00759 1.00249 83.26944 1.01611 -31.36298 20.00324 -83.57244 -0.9844 4.97861 101.74958 -17.04894 5.85248 -42.51417 -6.43254 -2.13026 -3.25875 113.43212 4.47906 11.02956 -53.16323 -6.48988 1.49592 2.96041
0.78357 0.12721 -0.49444 7.1398 -70.43524 -10.22712 -4.72707 5.95798 1.52534 17.50508 -17.22268 -2.1199 91.30841 7.93034 34.74101 9.4373 80.24748 -6.55825 0.84816 80.81603 1.19746 -31.31099 20.81204 -83.52427 -1.10538 4.89049 100.48713 -16.48152 6.21658 -41.82351 -6.48798 -2.16654 -3.2811 112.26846 4.63741 10.53182 -52.66512 -6.49977 1.54432 2.98359
0.78378 0.12854 -0.49349 6.75373 -69.46978 -10.38862 -3.50022 5.6771 1.63525 17.47409 -16.72444 -2.1199 88.94332 7.76526 34.14891 10.25023 81.27636 -5.95563 0.68979 78.35151 1.3236 -31.4566 21.59889 -83.45854 -1.27346 4.74867 99.15654 -15.8008 6.87809 -41.11111 -6.55871 -2.2332 -3.31891 111.00798 4.94789 10.32332 -52.15217 -6.52825 1.56633 2.99508
0.78399 0.12984 -0.49257 6.34005 -68.51719 -10.58231 -2.31594 5.40608 1.71782 17.44512 -16.28009 -2.11991 86.60563 7.64235 33.61594 11.03838 82.18056 -5.43447 0.54278 75.89743 1.47814 -31.5196 22.40095 -83.4004 -1.40556 4.63296 97.84335 -15.19824 7.33485 -40.40806 -6.62108 -2.27915 -3.34621 109.77645 5.18152 9.97452 -51.64495 -6.54725 1.60122 3.01225
0.7841 0.13115 -0.49163 5.87533 -67.60339 -10.81448 -1.08949 5.1207 1.79695 17.46427 -15.84275 -2.11991 84.23219 7.56464 32.87123 11.80838 83.22937 -4.86381 0.35917 73.41211 1.62047 -31.5582 23.18262 -83.33973 -1.5985 4.50997 96.58161 -14.48433 8.07407 -39.70491 -6.68961 -2.35306 -3.3877 108.60231 5.44491 9.65302 -51.13929 -6.57034 1.63344 3.02833
0.78443 0.13245 -0.49071 5.53779 -66.59947 -10.94521 0.06584 4.8624 1.89793 17.37642 -15.36132 -2.11991 81.9269 7.3646 32.56208 12.63061 84.02543 -4.35935 0.24954 70.99398 1.77549 -31.69274 24.00197 -83.2817 -1.67683 4.38919 95.19967 -13.97189 8.30974 -38.99796 -6.74884 -2.37744 -3.40401 107.28893 5.6846 9.35005 -50.62815 -6.58942 1.66426 3.0436
0.78533 0.13374 -0.48982 5.53457 -65.34763 -10.81496 1.00297 4.68152 2.04662 16.99605 -14.78738 -2.11991 79.80352 6.85787 33.4487 13.57715 84.05847 -4.08021 0.34393 68.74602 1.96634 -32.03822 24.91742 -83.23612 -1.41907 4.29078 93.49041 -14.08228 6.95909 -38.28225 -6.77885 -2.24461 -3.3407 105.60275 5.80796 8.99192 -50.10203 -6.59283 1.70131 3.06112
0.78646 0.13502 -0.48893 5.65603 -64.00936 -10.58637 1.86591 4.529 2.21473 16.50964 -14.17314 -2.11991 77.75447 6.23127 34.77446 14.57461 83.83306 -3.87226 0.51242 66.57062 2.17395 -32.47353 25.87358 -83.19425 -1.0459 4.19615 91.66499 -14.39282 5.11299 -37.56413 -6.79891 -2.06316 -3.25262 103.78241 5.90475 8.64951 -49.57167 -6.5916 1.73713 3.07791
0.78749 0.13629 -0.48805 5.71766 -62.7191 -10.40477 2.76568 4.36421 2.37259 16.07454 -13.57728 -2.11991 75.68389 5.65774 35.90642 15.54967 83.73643 -3.62822 0.64759 64.37454 2.38163 -32.87056 26.81948 -83.15072 -0.7308 4.0975 89.90197 -14.58609 3.57631 -36.85014 -6.82335 -1.91264 -3.18007 102.03254 6.02319 8.32494 -49.04615 -6.59252 1.77098 3.09388
0.78851 0.13761 -0.48714 5.7949 -61.39107 -10.21011 3.65687 4.19559 2.53902 15.62548 -12.97666 -2.11991 73.56006 5.08658 37.01694 16.52134 83.59896 -3.39385 0.78211 62.12513 2.55442 -33.26407 27.73003 -83.10641 -0.3934 4.00573 88.0979 -14.88476 1.70016 -36.12376 -6.84891 -1.72645 -3.09026 100.24052 6.10748 7.90719 -48.5087 -6.59386 1.8144 3.11419
0.78961 0.13883 -0.48628 5.86905 -60.12069 -10.02073 4.54486 4.04271 2.69088 15.1804 -12.37829 -2.11991 71.56516 4.48291 38.27237 17.51462 83.48259 -3.15919 0.93446 60.00534 2.80527 -33.68337 28.72394 -83.06481 -0.07471 3.90244 86.35017 -15.01503 0.40214 -35.4214 -6.86962 -1.60192 -3.03 98.50391 6.25337 7.68058 -47.99412 -6.59303 1.83818 3.12556
0.79092 0.13974 -0.48554 5.89558 -59.04178 -9.86818 5.4638 3.919 2.80216 14.77516 -11.79376 -2.11991 69.91125 3.82422 39.85628 18.52625 83.48662 -2.89863 1.12802 58.21662 3.26203 -34.15332 29.94047 -83.03056 0.167 3.75547 84.80951 -14.61415 0.88412 -34.7995 -6.87868 -1.66525 -3.06001 96.9704 6.58528 8.00128 -47.55417 -6.58699 1.80607 3.11159
0.79232 0.14055 -0.48485 5.91571 -58.02259 -9.72504 6.37817 3.81139 2.89704 14.37729 -11.21396 -2.11991 68.38428 3.13641 41.56395 19.56306 83.52007 -2.63722 1.33533 56.55763 3.7983 -34.64491 31.23949 -82.99893 0.38573 3.59863 83.32652 -14.04084 1.95183 -34.19984 -6.88323 -1.79103 -3.12001 95.49531 6.97726 8.50742 -47.13575 -6.57888 1.75483 3.08891
0.79368 0.14143 -0.48413 5.94417 -56.96832 -9.57938 7.27942 3.70155 2.99616 13.9742 -10.63399 -2.11991 66.79728 2.45905 43.19191 20.60671 83.53964 -2.38245 1.52937 54.84532 4.30175 -35.12456 32.49882 -82.96559 0.6131 3.45429 81.80122 -13.55809 2.70905 -33.58072 -6.89022 -1.88437 -3.1645 93.9817 7.33521 8.91266 -46.70041 -6.57186 1.71365 3.07078
0.79501 0.14223 -0.48342 5.95479 -55.94227 -9.4232 8.2402 3.57201 3.10932 13.57493 -10.04394 -2.11991 65.22238 1.78957 44.93545 21.57435 83.55218 -2.10498 1.75458 53.11177 4.79076 -35.61606 33.76738 -82.93425 0.85148 3.27804 80.33606 -13.03005 3.63644 -32.99933 -6.89528 -1.99335 -3.21619 92.51083 7.72209 9.39128 -46.29407 -6.5641 1.66625 3.04995
